<svg width="108" height="99" viewBox="0 0 108 99" fill="none" xmlns="http://www.w3.org/2000/svg">
<g filter="url(#filter0_f_0_1)">
<ellipse cx="53.501" cy="67.5" rx="31.5" ry="9.5" fill="#4DB4FF"/>
</g>
<g filter="url(#filter1_bi_0_1)">
<path fill-rule="evenodd" clip-rule="evenodd" d="M77.001 30C77.001 30.7882 76.9706 31.5693 76.9109 32.3422C80.1958 29.6296 84.4081 28 89.001 28C99.4944 28 108.001 36.5066 108.001 47C108.001 57.158 100.03 65.4541 90.001 65.9741V66H89.001H19.001H17.001V65.896C7.44765 64.8966 0.000976562 56.8179 0.000976562 47C0.000976562 37.1618 7.47849 29.07 17.0603 28.0979C18.0415 12.4156 31.0713 0 47.001 0C63.5695 0 77.001 13.4315 77.001 30Z" fill="url(#paint0_linear_0_1)"/>
</g>
<path d="M68.684 35.6434L60.6364 44.7742C59.7306 45.7375 59.0861 46.8986 58.7562 48.1616C58.4263 49.4247 58.4206 50.7532 58.7394 52.0373C59.0023 53.056 59.5502 53.996 60.3244 54.7565C61.0986 55.517 62.07 56.0695 63.1344 56.3547C64.1989 56.6399 65.3163 56.6472 66.3671 56.3756C67.4178 56.1041 68.3623 55.564 69.0994 54.8132C70.0139 53.8599 70.6742 52.7099 71.0275 51.4551C71.3808 50.2004 71.4172 48.8757 71.1339 47.587L68.684 35.6434Z" fill="url(#paint1_linear_0_1)"/>
<path d="M42.7313 31.3669L36.5954 36.9788C35.9095 37.5667 35.3866 38.3082 35.0699 39.1419C34.7532 39.9756 34.6519 40.8775 34.7743 41.7731C34.8782 42.4844 35.1814 43.163 35.6515 43.7364C36.1216 44.3098 36.7409 44.7563 37.443 45.0281C38.1451 45.2999 38.9036 45.3867 39.6372 45.2793C40.3709 45.1719 41.052 44.8743 41.6077 44.4184C42.2988 43.8379 42.8317 43.1052 43.1637 42.2788C43.4956 41.4524 43.6175 40.5553 43.5196 39.6592L42.7313 31.3669Z" fill="url(#paint2_linear_0_1)"/>
<path d="M47.8088 54.9058L38.3161 65.9182C37.2662 67.1104 36.5167 68.5274 36.1264 70.0584C35.7361 71.5894 35.7155 73.1928 36.0662 74.7431C36.3557 75.9661 36.9816 77.0931 37.876 78.0021C38.7705 78.9112 39.8993 79.5675 41.1403 79.9C42.3813 80.2326 43.6871 80.2286 44.9162 79.8886C46.1453 79.5485 47.2509 78.8854 48.1131 77.971C49.192 76.8038 49.9758 75.405 50.4033 73.8839C50.8308 72.3629 50.8903 70.7609 50.5771 69.2035L47.8088 54.9058Z" fill="url(#paint3_linear_0_1)"/>
<path fill-rule="evenodd" clip-rule="evenodd" d="M49.957 66H38.245C38.2686 65.9726 38.2924 65.9453 38.3163 65.9182L47.809 54.9058L49.957 66ZM36.5957 36.9788L42.7316 31.3669L43.5198 39.6592C43.6177 40.5554 43.4959 41.4525 43.1639 42.2789C42.8319 43.1053 42.2991 43.838 41.608 44.4185C41.0522 44.8744 40.3711 45.172 39.6375 45.2794C38.9038 45.3867 38.1453 45.2999 37.4432 45.0281C36.7411 44.7563 36.1219 44.3098 35.6517 43.7365C35.1816 43.1631 34.8784 42.4844 34.7745 41.7732C34.6521 40.8776 34.7535 39.9756 35.0702 39.1419C35.3868 38.3082 35.9098 37.5667 36.5957 36.9788ZM60.6366 44.7742L68.6842 35.6435L71.1341 47.587C71.4174 48.8757 71.381 50.2004 71.0277 51.4552C70.6744 52.71 70.0141 53.86 69.0996 54.8133C68.3625 55.5641 67.418 56.1041 66.3673 56.3757C65.3165 56.6472 64.1991 56.64 63.1346 56.3548C62.0702 56.0696 61.0988 55.5171 60.3246 54.7566C59.5504 53.996 59.0025 53.0561 58.7396 52.0373C58.4208 50.7532 58.4265 49.4247 58.7564 48.1617C59.0863 46.8987 59.7308 45.7375 60.6366 44.7742Z" fill="#E0F3FE"/>
<defs>
<filter id="filter0_f_0_1" x="0.000976562" y="36" width="107" height="63" filterUnits="userSpaceOnUse" color-interpolation-filters="sRGB">
<feFlood flood-opacity="0" result="BackgroundImageFix"/>
<feBlend mode="normal" in="SourceGraphic" in2="BackgroundImageFix" result="shape"/>
<feGaussianBlur stdDeviation="11" result="effect1_foregroundBlur_0_1"/>
</filter>
<filter id="filter1_bi_0_1" x="-6.99902" y="-7" width="122" height="80" filterUnits="userSpaceOnUse" color-interpolation-filters="sRGB">
<feFlood flood-opacity="0" result="BackgroundImageFix"/>
<feGaussianBlur in="BackgroundImageFix" stdDeviation="3.5"/>
<feComposite in2="SourceAlpha" operator="in" result="effect1_backgroundBlur_0_1"/>
<feBlend mode="normal" in="SourceGraphic" in2="effect1_backgroundBlur_0_1" result="shape"/>
<feColorMatrix in="SourceAlpha" type="matrix" values="0 0 0 0 0 0 0 0 0 0 0 0 0 0 0 0 0 0 127 0" result="hardAlpha"/>
<feOffset dy="2"/>
<feGaussianBlur stdDeviation="4"/>
<feComposite in2="hardAlpha" operator="arithmetic" k2="-1" k3="1"/>
<feColorMatrix type="matrix" values="0 0 0 0 0 0 0 0 0 0.82 0 0 0 0 1 0 0 0 0.25 0"/>
<feBlend mode="normal" in2="shape" result="effect2_innerShadow_0_1"/>
</filter>
<linearGradient id="paint0_linear_0_1" x1="56.001" y1="89.5" x2="96.501" y2="1.95655e-07" gradientUnits="userSpaceOnUse">
<stop stop-color="#0082DF"/>
<stop offset="0.299998" stop-color="#48B2FF" stop-opacity="0.75"/>
<stop offset="1" stop-color="#3BADFF" stop-opacity="0"/>
</linearGradient>
<linearGradient id="paint1_linear_0_1" x1="68.6873" y1="35.6443" x2="62.0853" y2="60.2836" gradientUnits="userSpaceOnUse">
<stop stop-color="#E4F5FF"/>
<stop offset="0.146777" stop-color="#D7F0FF"/>
<stop offset="1" stop-color="#0072DC"/>
</linearGradient>
<linearGradient id="paint2_linear_0_1" x1="42.7335" y1="31.3678" x2="36.4423" y2="47.6198" gradientUnits="userSpaceOnUse">
<stop stop-color="#E4F5FF"/>
<stop offset="0.146777" stop-color="#D7F0FF"/>
<stop offset="1" stop-color="#0072DC"/>
</linearGradient>
<linearGradient id="paint3_linear_0_1" x1="47.8356" y1="54.9129" x2="40.2168" y2="83.3465" gradientUnits="userSpaceOnUse">
<stop stop-color="#E4F5FF"/>
<stop offset="0.0777368" stop-color="#D7F0FF"/>
<stop offset="1" stop-color="#0072DC"/>
</linearGradient>
</defs>
</svg>
