<svg width="129" height="104" viewBox="0 0 129 104" fill="none" xmlns="http://www.w3.org/2000/svg">
<path d="M106.323 34.1678C103.816 34.3129 101.305 33.9447 98.9458 33.0858C96.5862 32.2269 94.4271 30.8954 92.6008 29.1729C90.7744 27.4504 89.3195 25.3733 88.325 23.0689C87.3305 20.7645 86.8175 18.2815 86.8175 15.7719C86.8175 13.2624 87.3305 10.7793 88.325 8.47487C89.3195 6.17048 90.7744 4.09337 92.6008 2.37091C94.4271 0.648449 96.5862 -0.683063 98.9458 -1.54198C101.305 -2.40089 103.816 -2.76909 106.323 -2.62402C107.906 -2.63586 109.483 -2.42846 111.01 -2.00774C106.438 -5.29642 100.936 -7.0447 95.3033 -6.99913C89.6703 -6.95357 84.1981 -5.11654 79.6799 -1.75433C75.1618 1.60788 71.8325 6.32057 70.1745 11.7007C68.5166 17.0808 68.6162 22.8487 70.4589 28.1684C72.3015 33.4882 75.7916 38.0833 80.4231 41.2877C85.0547 44.4922 90.587 46.1394 96.2183 45.9908C101.85 45.8421 107.287 43.9052 111.743 40.4609C116.199 37.0165 119.441 32.2436 121 26.8341C119.296 29.1165 117.081 30.9686 114.532 32.242C111.984 33.5155 109.172 34.175 106.323 34.1678Z" fill="url(#paint0_linear_203_244)"/>
<g filter="url(#filter0_f_203_244)">
<ellipse cx="53.5" cy="72.5" rx="31.5" ry="9.5" fill="#4DB4FF"/>
</g>
<g filter="url(#filter1_bi_203_244)">
<path fill-rule="evenodd" clip-rule="evenodd" d="M77 35C77 35.7882 76.9696 36.5693 76.9099 37.3422C80.1949 34.6296 84.4071 33 89 33C99.4934 33 108 41.5066 108 52C108 62.158 100.029 70.4541 90 70.9741V71H89H19H17V70.896C7.44667 69.8966 0 61.8179 0 52C0 42.1618 7.47752 34.07 17.0593 33.0979C18.0405 17.4156 31.0704 5 47 5C63.5685 5 77 18.4315 77 35Z" fill="url(#paint1_linear_203_244)"/>
</g>
<path d="M121.5 23C121.5 20.6131 120.71 18.3239 119.303 16.636C117.897 14.9482 115.989 14 114 14C115.989 14 117.897 13.0518 119.303 11.364C120.71 9.67614 121.5 7.38695 121.5 5C121.5 6.1819 121.694 7.35222 122.071 8.44415C122.448 9.53608 123 10.5282 123.697 11.364C124.393 12.1997 125.22 12.8626 126.13 13.3149C127.04 13.7672 128.015 14 129 14C128.015 14 127.04 14.2328 126.13 14.6851C125.22 15.1374 124.393 15.8003 123.697 16.636C123 17.4718 122.448 18.4639 122.071 19.5559C121.694 20.6478 121.5 21.8181 121.5 23Z" fill="url(#paint2_linear_203_244)"/>
<path d="M53.5 14C53.5 11.6131 52.7098 9.32387 51.3033 7.63604C49.8968 5.94822 47.9891 5.00001 46 5.00001C47.9891 5.00001 49.8968 4.05179 51.3033 2.36397C52.7098 0.676139 53.5 -1.61305 53.5 -4C53.5 -2.8181 53.694 -1.64778 54.0709 -0.55585C54.4478 0.53608 55.0003 1.52824 55.6967 2.36397C56.3931 3.19969 57.2199 3.86262 58.1299 4.31491C59.0398 4.76721 60.0151 5.00001 61 5.00001C60.0151 5.00001 59.0398 5.23279 58.1299 5.68509C57.2199 6.13738 56.3931 6.80032 55.6967 7.63604C55.0003 8.47177 54.4478 9.46392 54.0709 10.5559C53.694 11.6478 53.5 12.8181 53.5 14Z" fill="url(#paint3_linear_203_244)"/>
<path d="M37.807 60.9058L28.3143 71.9182C27.2643 73.1104 26.5149 74.5274 26.1246 76.0584C25.7342 77.5894 25.7137 79.1928 26.0644 80.7431C26.3539 81.9661 26.9798 83.0931 27.8742 84.0021C28.7686 84.9112 29.8975 85.5675 31.1385 85.9C32.3795 86.2326 33.6853 86.2286 34.9144 85.8886C36.1435 85.5485 37.249 84.8854 38.1112 83.971C39.1901 82.8038 39.974 81.405 40.4015 79.8839C40.8289 78.3629 40.8884 76.7609 40.5753 75.2035L37.807 60.9058Z" fill="url(#paint4_linear_203_244)"/>
<path fill-rule="evenodd" clip-rule="evenodd" d="M40.2323 71.6331H28.5203C28.5439 71.6057 28.5676 71.5784 28.5915 71.5512L38.0843 60.5388L40.2323 71.6331ZM26.8709 42.6119L33.0068 37L33.7951 45.2923C33.893 46.1884 33.7711 47.0855 33.4391 47.9119C33.1072 48.7383 32.5743 49.471 31.8832 50.0515C31.3275 50.5074 30.6464 50.805 29.9127 50.9124C29.1791 51.0198 28.4206 50.933 27.7185 50.6612C27.0164 50.3894 26.3971 49.9429 25.927 49.3695C25.4569 48.7961 25.1537 48.1175 25.0498 47.4062C24.9274 46.5106 25.0287 45.6087 25.3454 44.775C25.6621 43.9413 26.185 43.1998 26.8709 42.6119ZM50.9118 50.4073L58.9595 41.2766L61.4094 53.2201C61.6927 54.5088 61.6562 55.8335 61.303 57.0882C60.9497 58.343 60.2894 59.493 59.3748 60.4464C58.6378 61.1971 57.6933 61.7372 56.6425 62.0087C55.5918 62.2803 54.4743 62.2731 53.4099 61.9879C52.3454 61.7026 51.3741 61.1502 50.5999 60.3896C49.8257 59.6291 49.2778 58.6891 49.0148 57.6704C48.696 56.3863 48.7018 55.0578 49.0317 53.7948C49.3616 52.5318 50.0061 51.3706 50.9118 50.4073Z" fill="#E0F3FE"/>
<defs>
<filter id="filter0_f_203_244" x="0" y="41" width="107" height="63" filterUnits="userSpaceOnUse" color-interpolation-filters="sRGB">
<feFlood flood-opacity="0" result="BackgroundImageFix"/>
<feBlend mode="normal" in="SourceGraphic" in2="BackgroundImageFix" result="shape"/>
<feGaussianBlur stdDeviation="11" result="effect1_foregroundBlur_203_244"/>
</filter>
<filter id="filter1_bi_203_244" x="-7" y="-2" width="122" height="80" filterUnits="userSpaceOnUse" color-interpolation-filters="sRGB">
<feFlood flood-opacity="0" result="BackgroundImageFix"/>
<feGaussianBlur in="BackgroundImageFix" stdDeviation="3.5"/>
<feComposite in2="SourceAlpha" operator="in" result="effect1_backgroundBlur_203_244"/>
<feBlend mode="normal" in="SourceGraphic" in2="effect1_backgroundBlur_203_244" result="shape"/>
<feColorMatrix in="SourceAlpha" type="matrix" values="0 0 0 0 0 0 0 0 0 0 0 0 0 0 0 0 0 0 127 0" result="hardAlpha"/>
<feOffset dy="2"/>
<feGaussianBlur stdDeviation="4"/>
<feComposite in2="hardAlpha" operator="arithmetic" k2="-1" k3="1"/>
<feColorMatrix type="matrix" values="0 0 0 0 0 0 0 0 0 0.82 0 0 0 0 1 0 0 0 0.25 0"/>
<feBlend mode="normal" in2="shape" result="effect2_innerShadow_203_244"/>
</filter>
<linearGradient id="paint0_linear_203_244" x1="95" y1="-7" x2="95" y2="46" gradientUnits="userSpaceOnUse">
<stop stop-color="#FDC500"/>
<stop offset="1" stop-color="#FD8900"/>
</linearGradient>
<linearGradient id="paint1_linear_203_244" x1="56" y1="94.5" x2="96.5" y2="5" gradientUnits="userSpaceOnUse">
<stop stop-color="#0082DF"/>
<stop offset="0.299998" stop-color="#48B2FF" stop-opacity="0.75"/>
<stop offset="1" stop-color="#3BADFF" stop-opacity="0"/>
</linearGradient>
<linearGradient id="paint2_linear_203_244" x1="121.5" y1="5" x2="121.5" y2="23" gradientUnits="userSpaceOnUse">
<stop stop-color="#FDC500"/>
<stop offset="1" stop-color="#FD8900"/>
</linearGradient>
<linearGradient id="paint3_linear_203_244" x1="53.5" y1="-4" x2="53.5" y2="14" gradientUnits="userSpaceOnUse">
<stop stop-color="#FDC500"/>
<stop offset="1" stop-color="#FD8900"/>
</linearGradient>
<linearGradient id="paint4_linear_203_244" x1="37.8338" y1="60.9129" x2="30.215" y2="89.3465" gradientUnits="userSpaceOnUse">
<stop stop-color="#E4F5FF"/>
<stop offset="0.0777368" stop-color="#D7F0FF"/>
<stop offset="1" stop-color="#0072DC"/>
</linearGradient>
</defs>
</svg>
