<svg width="121" height="111" viewBox="0 0 121 111" fill="none" xmlns="http://www.w3.org/2000/svg">
<path d="M106.323 41.1678C103.816 41.3129 101.305 40.9447 98.9458 40.0858C96.5862 39.2269 94.4271 37.8954 92.6008 36.1729C90.7744 34.4504 89.3195 32.3733 88.325 30.0689C87.3305 27.7645 86.8175 25.2815 86.8175 22.7719C86.8175 20.2624 87.3305 17.7793 88.325 15.4749C89.3195 13.1705 90.7744 11.0934 92.6008 9.37091C94.4271 7.64845 96.5862 6.31694 98.9458 5.45802C101.305 4.59911 103.816 4.23091 106.323 4.37598C107.906 4.36414 109.483 4.57154 111.01 4.99226C106.438 1.70358 100.936 -0.044696 95.3033 0.000868545C89.6703 0.0464331 84.1981 1.88346 79.6799 5.24567C75.1618 8.60788 71.8325 13.3206 70.1745 18.7007C68.5166 24.0808 68.6162 29.8487 70.4589 35.1684C72.3015 40.4882 75.7916 45.0833 80.4231 48.2877C85.0547 51.4922 90.587 53.1394 96.2183 52.9908C101.85 52.8421 107.287 50.9052 111.743 47.4609C116.199 44.0165 119.441 39.2436 121 33.8341C119.296 36.1165 117.081 37.9686 114.532 39.242C111.984 40.5155 109.172 41.175 106.323 41.1678Z" fill="url(#paint0_linear_204_268)"/>
<g filter="url(#filter0_f_204_268)">
<ellipse cx="53.5" cy="79.5" rx="31.5" ry="9.5" fill="#4DB4FF"/>
</g>
<g filter="url(#filter1_bi_204_268)">
<path fill-rule="evenodd" clip-rule="evenodd" d="M77 42C77 42.7882 76.9696 43.5693 76.9099 44.3422C80.1949 41.6296 84.4071 40 89 40C99.4934 40 108 48.5066 108 59C108 69.158 100.029 77.4541 90 77.9741V78H89H19H17V77.896C7.44667 76.8966 0 68.8179 0 59C0 49.1618 7.47752 41.07 17.0593 40.0979C18.0405 24.4156 31.0704 12 47 12C63.5685 12 77 25.4315 77 42Z" fill="url(#paint1_linear_204_268)"/>
</g>
<path d="M57.2865 47.8426L49.2389 56.9733C48.3331 57.9366 47.6886 59.0978 47.3588 60.3608C47.0289 61.6238 47.0231 62.9523 47.3419 64.2364C47.6048 65.2551 48.1527 66.1951 48.927 66.9557C49.7012 67.7162 50.6725 68.2687 51.7369 68.5539C52.8014 68.8391 53.9188 68.8463 54.9696 68.5748C56.0203 68.3032 56.9648 67.7632 57.7019 67.0124C58.6164 66.0591 59.2767 64.909 59.63 63.6543C59.9833 62.3995 60.0197 61.0748 59.7364 59.7861L57.2865 47.8426Z" fill="url(#paint2_linear_204_268)"/>
<path d="M31.3339 43.5661L25.198 49.1779C24.5121 49.7659 23.9892 50.5073 23.6725 51.341C23.3558 52.1747 23.2544 53.0767 23.3768 53.9723C23.4807 54.6835 23.7839 55.3622 24.2541 55.9356C24.7242 56.5089 25.3434 56.9554 26.0455 57.2272C26.7476 57.499 27.5061 57.5859 28.2398 57.4785C28.9734 57.3711 29.6546 57.0735 30.2103 56.6176C30.9014 56.0371 31.4342 55.3044 31.7662 54.478C32.0982 53.6516 32.2201 52.7545 32.1221 51.8583L31.3339 43.5661Z" fill="url(#paint3_linear_204_268)"/>
<path d="M36.4114 67.1049L26.9186 78.1173C25.8687 79.3095 25.1192 80.7266 24.7289 82.2576C24.3386 83.7886 24.318 85.392 24.6688 86.9423C24.9583 88.1652 25.5841 89.2923 26.4786 90.2013C27.373 91.1103 28.5019 91.7667 29.7429 92.0992C30.9838 92.4317 32.2896 92.4277 33.5188 92.0877C34.7479 91.7477 35.8534 91.0846 36.7156 90.1702C37.7945 89.003 38.5784 87.6041 39.0058 86.0831C39.4333 84.562 39.4928 82.9601 39.1796 81.4027L36.4114 67.1049Z" fill="url(#paint4_linear_204_268)"/>
<path fill-rule="evenodd" clip-rule="evenodd" d="M38.5596 78.1992H26.8475C26.8711 78.1718 26.8949 78.1445 26.9188 78.1173L36.4115 67.1049L38.5596 78.1992ZM25.1982 49.178L31.3341 43.5661L32.1224 51.8584C32.2203 52.7545 32.0984 53.6516 31.7664 54.478C31.4344 55.3044 30.9016 56.0371 30.2105 56.6176C29.6548 57.0735 28.9736 57.3711 28.24 57.4785C27.5064 57.5859 26.7479 57.4991 26.0458 57.2273C25.3437 56.9555 24.7244 56.509 24.2543 55.9356C23.7842 55.3622 23.4809 54.6836 23.377 53.9723C23.2547 53.0767 23.356 52.1748 23.6727 51.3411C23.9894 50.5074 24.5123 49.7659 25.1982 49.178ZM49.2391 56.9734L57.2867 47.8427L59.7366 59.7862C60.0199 61.0749 59.9835 62.3996 59.6302 63.6543C59.277 64.9091 58.6166 66.0591 57.7021 67.0125C56.965 67.7632 56.0206 68.3033 54.9698 68.5748C53.919 68.8464 52.8016 68.8392 51.7372 68.554C50.6727 68.2687 49.7014 67.7163 48.9272 66.9557C48.153 66.1952 47.605 65.2552 47.3421 64.2365C47.0233 62.9524 47.0291 61.6239 47.359 60.3609C47.6888 59.0979 48.3333 57.9367 49.2391 56.9734Z" fill="#E0F3FE"/>
<defs>
<filter id="filter0_f_204_268" x="0" y="48" width="107" height="63" filterUnits="userSpaceOnUse" color-interpolation-filters="sRGB">
<feFlood flood-opacity="0" result="BackgroundImageFix"/>
<feBlend mode="normal" in="SourceGraphic" in2="BackgroundImageFix" result="shape"/>
<feGaussianBlur stdDeviation="11" result="effect1_foregroundBlur_204_268"/>
</filter>
<filter id="filter1_bi_204_268" x="-7" y="5" width="122" height="80" filterUnits="userSpaceOnUse" color-interpolation-filters="sRGB">
<feFlood flood-opacity="0" result="BackgroundImageFix"/>
<feGaussianBlur in="BackgroundImageFix" stdDeviation="3.5"/>
<feComposite in2="SourceAlpha" operator="in" result="effect1_backgroundBlur_204_268"/>
<feBlend mode="normal" in="SourceGraphic" in2="effect1_backgroundBlur_204_268" result="shape"/>
<feColorMatrix in="SourceAlpha" type="matrix" values="0 0 0 0 0 0 0 0 0 0 0 0 0 0 0 0 0 0 127 0" result="hardAlpha"/>
<feOffset dy="2"/>
<feGaussianBlur stdDeviation="4"/>
<feComposite in2="hardAlpha" operator="arithmetic" k2="-1" k3="1"/>
<feColorMatrix type="matrix" values="0 0 0 0 0 0 0 0 0 0.82 0 0 0 0 1 0 0 0 0.25 0"/>
<feBlend mode="normal" in2="shape" result="effect2_innerShadow_204_268"/>
</filter>
<linearGradient id="paint0_linear_204_268" x1="95" y1="0" x2="95" y2="53" gradientUnits="userSpaceOnUse">
<stop stop-color="#FDC500"/>
<stop offset="1" stop-color="#FD8900"/>
</linearGradient>
<linearGradient id="paint1_linear_204_268" x1="56" y1="101.5" x2="96.5" y2="12" gradientUnits="userSpaceOnUse">
<stop stop-color="#0082DF"/>
<stop offset="0.299998" stop-color="#48B2FF" stop-opacity="0.75"/>
<stop offset="1" stop-color="#3BADFF" stop-opacity="0"/>
</linearGradient>
<linearGradient id="paint2_linear_204_268" x1="57.2899" y1="47.8435" x2="50.6878" y2="72.4828" gradientUnits="userSpaceOnUse">
<stop stop-color="#E4F5FF"/>
<stop offset="0.146777" stop-color="#D7F0FF"/>
<stop offset="1" stop-color="#0072DC"/>
</linearGradient>
<linearGradient id="paint3_linear_204_268" x1="31.3361" y1="43.5669" x2="25.0448" y2="59.819" gradientUnits="userSpaceOnUse">
<stop stop-color="#E4F5FF"/>
<stop offset="0.146777" stop-color="#D7F0FF"/>
<stop offset="1" stop-color="#0072DC"/>
</linearGradient>
<linearGradient id="paint4_linear_204_268" x1="36.4381" y1="67.1121" x2="28.8194" y2="95.5457" gradientUnits="userSpaceOnUse">
<stop stop-color="#E4F5FF"/>
<stop offset="0.0777368" stop-color="#D7F0FF"/>
<stop offset="1" stop-color="#0072DC"/>
</linearGradient>
</defs>
</svg>
